<svg xmlns="http://www.w3.org/2000/svg"  viewBox="0 0 80 80" width="80px" height="80px"><path d="M 53 6 C 49.308314 6 45.543309 7.8223921 43.261719 10.326172 C 41.29711 12.461024 40 15.795449 40 20 L 40 21 L 41 21 C 44.76342 21 48.296584 19.437658 50.75 16.662109 L 50.751953 16.660156 C 53.214913 13.856638 54 10.168444 54 7 L 54 6 L 53 6 z M 51.837891 8.1464844 C 51.663081 10.672276 51.004556 13.339501 49.25 15.337891 C 49.25 15.337891 49.248047 15.337891 49.248047 15.337891 C 49.248047 15.337891 49.248047 15.339844 49.248047 15.339844 C 47.45027 17.372615 44.921991 18.452756 42.199219 18.75 C 42.448292 15.648576 43.376891 13.153738 44.736328 11.677734 L 44.738281 11.675781 L 44.738281 11.673828 C 46.351137 9.903907 49.153338 8.4927872 51.837891 8.1464844 z M 52.425781 21.994141 C 49.451254 21.987813 46.619619 22.906367 44.359375 23.769531 C 42.538937 24.464699 41.025066 25 40 25 C 38.827614 25 37.326315 24.45702 35.494141 23.751953 C 33.483481 22.978623 31.567143 22 29 22 C 28.95 22 28.892446 22.000669 28.828125 22.001953 C 22.898827 22.090763 16.988168 25.549685 13.898438 30.757812 C 12.15792 33.684947 11.14035 37.580749 11 41.96875 C 10.770843 49.145916 12.907421 57.665567 18.402344 65.361328 L 18.404297 65.361328 C 19.987253 67.576362 21.553184 69.704593 23.291016 71.318359 C 25.028847 72.932126 27.012582 74.064008 29.292969 73.998047 L 29.296875 73.998047 L 29.302734 73.998047 C 31.345429 73.919317 32.822599 73.309274 34.335938 72.685547 C 36.190592 71.918389 38.020335 71 40.982422 71 C 43.810454 71 45.550128 71.891323 47.332031 72.638672 C 48.875365 73.286225 50.452957 74.043208 52.736328 74 C 55.036209 73.96001 56.985944 72.907426 58.675781 71.361328 C 60.365618 69.81523 61.859168 67.770104 63.441406 65.527344 C 65.919073 62.018184 67.269543 58.188279 67.939453 56.341797 L 68.242188 55.507812 L 67.451172 55.107422 C 64.898303 53.818886 59.079713 50.561328 59 41.990234 C 58.930254 35.134345 63.125882 31.568708 65.582031 29.814453 L 66.458984 29.1875 L 65.767578 28.359375 C 61.737941 23.535444 56.256196 22.166068 53.708984 22.056641 C 53.279514 22.015144 52.850714 21.995045 52.425781 21.994141 z M 52.441406 23.992188 C 52.807773 23.992267 53.172608 24.009261 53.535156 24.044922 L 53.564453 24.048828 L 53.59375 24.048828 C 55.348935 24.118078 59.964573 25.308428 63.484375 28.953125 C 60.771126 31.091668 56.929742 35.103613 57 42.009766 C 57.08164 50.788133 62.737949 54.766985 65.757812 56.419922 C 65.034627 58.394122 63.86133 61.467676 61.808594 64.375 C 60.240832 66.597239 58.793882 68.542067 57.324219 69.886719 C 55.854556 71.231371 54.427291 71.969988 52.701172 72 L 52.699219 72 C 50.860637 72.034792 49.708135 71.467369 48.105469 70.794922 C 46.425372 70.090271 44.24439 69 40.982422 69 C 37.594508 69 35.32953 70.111049 33.572266 70.837891 L 33.572266 70.835938 C 32.05953 71.459417 30.920216 71.931829 29.230469 71.998047 C 27.64034 72.042737 26.178582 71.272609 24.650391 69.853516 C 23.120972 68.433329 21.601294 66.396185 20.03125 64.199219 C 14.800173 56.87298 12.785157 48.760084 13 42.03125 C 13.131617 37.916274 14.1044 34.325885 15.619141 31.779297 L 15.619141 31.777344 C 18.330405 27.207213 23.70452 24.075358 28.863281 24 L 28.865234 24 L 28.867188 24 C 28.906773 23.999237 28.95 24 29 24 C 31.052857 24 32.65205 24.802471 34.775391 25.619141 C 36.607216 26.324073 38.268386 27 40 27 C 41.628934 27 43.254657 26.333505 45.074219 25.638672 C 47.254108 24.806194 49.876841 23.991631 52.441406 23.992188 z M 29 27 A 1.0001 1.0001 0 1 0 29 29 A 1.0001 1.0001 0 1 0 29 27 z M 24.978516 27.929688 L 24.177734 28.330078 L 24.019531 29.212891 L 24.630859 29.867188 L 24.978516 29.929688 L 25.779297 29.527344 L 25.9375 28.646484 L 25.324219 27.992188 L 24.978516 27.929688 z M 21.523438 30.181641 L 20.722656 30.583984 L 20.564453 31.464844 L 21.175781 32.119141 L 21.523438 32.181641 L 22.324219 31.78125 L 22.482422 30.898438 L 21.871094 30.244141 L 21.523438 30.181641 z M 18.96875 33.423828 L 18.167969 33.824219 L 18.009766 34.707031 L 18.623047 35.361328 L 18.96875 35.423828 L 19.771484 35.021484 L 19.927734 34.138672 L 19.316406 33.484375 L 18.96875 33.423828 z M 17.507812 37.287109 L 16.707031 37.689453 L 16.548828 38.570312 L 17.160156 39.224609 L 17.507812 39.287109 L 18.308594 38.886719 L 18.466797 38.003906 L 17.855469 37.349609 L 17.507812 37.287109 z M 17.027344 41.396484 L 16.224609 41.796875 L 16.068359 42.679688 L 16.679688 43.333984 L 17.027344 43.396484 L 17.828125 42.994141 L 17.986328 42.113281 L 17.373047 41.458984 L 17.027344 41.396484 z M 17.292969 45.527344 L 16.492188 45.929688 L 16.333984 46.810547 L 16.947266 47.464844 L 17.292969 47.527344 L 18.095703 47.126953 L 18.251953 46.244141 L 17.640625 45.589844 L 17.292969 45.527344 z M 18.1875 49.570312 L 17.386719 49.972656 L 17.228516 50.855469 L 17.841797 51.509766 L 18.1875 51.570312 L 18.988281 51.169922 L 19.146484 50.287109 L 18.535156 49.632812 L 18.1875 49.570312 z M 19.591797 53.46875 L 18.791016 53.869141 L 18.632812 54.751953 L 19.246094 55.40625 L 19.591797 55.46875 L 20.394531 55.066406 L 20.550781 54.185547 L 19.939453 53.529297 L 19.591797 53.46875 z M 21.449219 57.171875 L 20.648438 57.572266 L 20.490234 58.455078 L 21.103516 59.109375 L 21.449219 59.171875 L 22.251953 58.769531 L 22.408203 57.888672 L 21.796875 57.234375 L 21.449219 57.171875 z M 23.669922 60.669922 L 22.869141 61.072266 L 22.710938 61.953125 L 23.322266 62.607422 L 23.669922 62.669922 L 24.470703 62.267578 L 24.628906 61.386719 L 24.017578 60.732422 L 23.669922 60.669922 z M 26.179688 63.966797 L 25.378906 64.369141 L 25.220703 65.25 L 25.833984 65.904297 L 26.179688 65.966797 L 26.980469 65.566406 L 27.138672 64.683594 L 26.527344 64.029297 L 26.179688 63.966797 z M 29 67 A 1.0001 1.0001 0 1 0 29 69 A 1.0001 1.0001 0 1 0 29 67 z"/></svg>