<svg xmlns="http://www.w3.org/2000/svg"  viewBox="0 0 50 50" width="50px" height="50px"><path d="M 19.001953 9.0019531 A 1.0001 1.0001 0 0 0 18.001953 10.001953 L 18.001953 12.113281 C 11.017004 12.812103 5.3498737 17.05422 0.35742188 21.234375 A 1.0001 1.0001 0 0 0 0.056640625 22.335938 C 2.9034178 30.394205 9.1818236 37.437781 18.001953 38.759766 L 18.001953 41 A 1.0001 1.0001 0 0 0 19.001953 42 L 48.998047 42 A 1.0001 1.0001 0 0 0 49.998047 41 L 49.998047 10.001953 A 1.0001 1.0001 0 0 0 48.998047 9.0019531 L 19.001953 9.0019531 z M 20.001953 11.001953 L 47.998047 11.001953 L 47.998047 40 L 20.001953 40 L 20.001953 38.955078 C 20.333874 38.97119 20.659686 39.001953 20.998047 39.001953 C 31.028726 39.001953 40.513142 34.691173 45.691406 29.724609 A 1.0001 1.0001 0 0 0 45.513672 28.144531 L 40.513672 25.144531 A 1.0001 1.0001 0 0 0 39.28125 25.304688 C 34.941178 29.774587 27.476503 34.001953 20.998047 34.001953 C 20.666133 34.001953 20.334104 33.974969 20.001953 33.945312 L 20.001953 32.919922 C 20.313659 32.953664 20.627657 32.983701 20.949219 33 A 1.0001 1.0001 0 0 0 20.998047 33.001953 C 27.980804 33.001953 33.919866 28.437506 38.765625 22.642578 A 1.0001 1.0001 0 0 0 38.716797 21.306641 C 34.135466 16.581841 28.131225 12.003442 20.001953 12.001953 L 20.001953 11.001953 z M 20.001953 14.001953 C 27.018096 14.003368 32.277092 17.759782 36.583984 22.048828 C 32.068433 27.234346 26.842212 30.988664 21.019531 30.998047 C 20.671714 30.979762 20.333481 30.94776 20.001953 30.908203 L 20.001953 29.962891 C 20.324736 29.986764 20.654105 30.001953 20.998047 30.001953 C 25.482548 30.001953 30.453144 27.495063 33.824219 22.566406 A 1.0001 1.0001 0 0 0 33.787109 21.386719 C 30.983417 17.792439 25.158999 15.003349 20.001953 15.001953 L 20.001953 14.001953 z M 18.001953 14.123047 L 18.001953 15.125 C 12.923595 15.732004 8.2908527 18.585518 4.3183594 22.269531 A 1.0001 1.0001 0 0 0 4.0332031 23.261719 C 4.7976966 26.099739 7.0450082 29.189079 10.076172 31.667969 C 12.347031 33.525081 15.075851 35.032716 18.001953 35.671875 L 18.001953 36.744141 C 10.408793 35.474568 4.9697313 29.45638 2.2460938 22.291016 C 6.9583392 18.391271 12.02119 14.79662 18.001953 14.123047 z M 20.001953 17.001953 C 24.100901 17.003458 29.139822 19.408017 31.626953 22.070312 C 28.624784 26.022326 24.525547 28.001953 20.998047 28.001953 C 20.638157 28.001953 20.322138 27.970814 20.001953 27.943359 L 20.001953 23.123047 C 21.518658 23.453506 22.741525 24.457635 23.058594 25.339844 A 1.0001 1.0001 0 0 0 24.599609 25.802734 L 28.599609 22.802734 A 1.0001 1.0001 0 0 0 28.699219 21.287109 C 26.633317 19.266186 23.670813 18.19987 20.001953 18.035156 L 20.001953 17.001953 z M 18.001953 17.144531 L 18.001953 18.068359 C 14.642079 18.392772 11.49273 20.284858 8.4101562 22.533203 A 1.0001 1.0001 0 0 0 8.0957031 23.769531 C 10.301801 28.430859 13.588017 31.474545 18.001953 32.566406 L 18.001953 33.595703 C 15.607977 32.983416 13.298124 31.717431 11.34375 30.119141 C 8.7813965 28.023644 6.9785582 25.410171 6.2382812 23.275391 C 9.816483 20.082305 13.801437 17.72664 18.001953 17.144531 z M 20.001953 20.033203 C 22.67768 20.187362 24.660881 20.955745 26.226562 22.080078 L 24.28125 23.539062 C 23.355267 22.252739 21.805455 21.334477 20.001953 21.080078 L 20.001953 20.033203 z M 18.001953 20.072266 L 18.001953 21.054688 C 15.996511 21.249214 14.14171 22.017236 12.4375 23.173828 A 1.0001 1.0001 0 0 0 12.115234 24.470703 C 12.948852 26.039712 13.950136 27.439142 15.386719 28.441406 C 16.141499 28.967995 17.01116 29.367918 18.001953 29.632812 L 18.001953 30.509766 C 14.66772 29.564516 12.249042 27.29752 10.355469 23.675781 C 12.994704 21.826347 15.555291 20.391213 18.001953 20.072266 z M 18.001953 23.083984 L 18.001953 27.53125 C 17.456497 27.337173 16.961132 27.102651 16.53125 26.802734 C 15.698176 26.221522 15.041358 25.369754 14.427734 24.384766 C 15.585208 23.721996 16.760716 23.255459 18.001953 23.083984 z M 40.103516 27.230469 L 43.224609 29.103516 C 38.307082 33.280898 29.850636 37.001953 20.998047 37.001953 C 20.659825 37.001953 20.332912 36.97483 20.001953 36.957031 L 20.001953 35.947266 C 20.333162 35.971933 20.663839 36.001953 20.998047 36.001953 C 28.039002 36.001953 35.379121 31.841588 40.103516 27.230469 z"/></svg>